<svg width="1200" height="630" viewBox="0 0 1200 630" fill="none" xmlns="http://www.w3.org/2000/svg">
  <rect width="1200" height="630" fill="#F7F2E9"/>
  <circle cx="1045" cy="108" r="170" fill="#E5A997" fill-opacity="0.45"/>
  <circle cx="126" cy="544" r="190" fill="#8FB5AB" fill-opacity="0.28"/>
  <rect x="56" y="52" width="1088" height="526" rx="36" fill="#FFFDF8" stroke="#E8DACC"/>
  <text x="92" y="152" fill="#B6452C" font-size="28" font-family="PingFang SC, Microsoft YaHei, sans-serif" font-weight="700">投标日程 H5</text>
  <text x="92" y="240" fill="#1D2430" font-size="64" font-family="PingFang SC, Microsoft YaHei, sans-serif" font-weight="700">开标时间一页看清</text>
  <text x="92" y="300" fill="#5F6C7F" font-size="28" font-family="PingFang SC, Microsoft YaHei, sans-serif">按月查看项目开标时间、控制价、资质要求与 K 值范围</text>
  <rect x="92" y="360" width="214" height="104" rx="24" fill="#FFF4EF" stroke="#F0D2C7"/>
  <text x="118" y="402" fill="#6A7686" font-size="24" font-family="PingFang SC, Microsoft YaHei, sans-serif">项目总数</text>
  <text x="118" y="444" fill="#B6452C" font-size="42" font-family="PingFang SC, Microsoft YaHei, sans-serif" font-weight="700">237</text>
  <rect x="330" y="360" width="214" height="104" rx="24" fill="#F1F8F5" stroke="#D3E4DE"/>
  <text x="356" y="402" fill="#6A7686" font-size="24" font-family="PingFang SC, Microsoft YaHei, sans-serif">展示方式</text>
  <text x="356" y="444" fill="#1F6B5C" font-size="42" font-family="PingFang SC, Microsoft YaHei, sans-serif" font-weight="700">月历卡片</text>
  <rect x="92" y="496" width="474" height="42" rx="21" fill="#F8EEE5"/>
  <text x="114" y="524" fill="#8A5D45" font-size="22" font-family="PingFang SC, Microsoft YaHei, sans-serif">适合手机查看与微信转发打开</text>
  <rect x="744" y="164" width="310" height="240" rx="30" fill="#FFF9F3" stroke="#EBD9C8"/>
  <rect x="774" y="204" width="250" height="34" rx="17" fill="#EDE2D4"/>
  <rect x="774" y="254" width="172" height="24" rx="12" fill="#E4F0EC"/>
  <rect x="774" y="294" width="224" height="24" rx="12" fill="#F4E4DD"/>
  <rect x="774" y="342" width="118" height="34" rx="17" fill="#B6452C"/>
  <text x="807" y="366" fill="#FFFFFF" font-size="20" font-family="PingFang SC, Microsoft YaHei, sans-serif">09:30 开标</text>
  <rect x="700" y="118" width="130" height="130" rx="32" fill="#1F6B5C"/>
  <text x="731" y="176" fill="#FFFFFF" font-size="24" font-family="PingFang SC, Microsoft YaHei, sans-serif">MAR</text>
  <text x="733" y="222" fill="#FFFFFF" font-size="52" font-family="PingFang SC, Microsoft YaHei, sans-serif" font-weight="700">26</text>
</svg>
